<svg id="Capa_1" enable-background="new 0 0 494.92 494.92" height="512" viewBox="0 0 494.92 494.92" width="512" xmlns="http://www.w3.org/2000/svg"><path d="m450.621 277.832h-29.678l-10-27.187 10-32.168h29.678c16.391 0 29.678 13.287 29.678 29.678-.001 16.39-13.288 29.677-29.678 29.677z" fill="#60b7ff"/><path d="m450.621 218.874h-25.171c14.093 2.307 24.849 14.535 24.849 29.281 0 16.283-13.114 29.496-29.356 29.67v.405h29.678c16.391 0 29.678-13.287 29.678-29.678-.001-16.391-13.288-29.678-29.678-29.678z" fill="#26a6fe"/><path d="m450.621 157.612h-29.678l-10-29.678 10-29.678h29.678c16.391 0 29.678 13.287 29.678 29.678-.001 16.391-13.288 29.678-29.678 29.678z" fill="#0ed290"/><path d="m450.621 98.257h-29.678v.008c16.241.174 29.356 13.387 29.356 29.67 0 16.283-13.114 29.496-29.356 29.67v.008h29.678c16.391 0 29.678-13.287 29.678-29.678-.001-16.391-13.288-29.678-29.678-29.678z" fill="#00c285"/><path d="m450.621 115.393h-29.678l-10-28.855 10-30.5h29.678c16.391 0 29.678 13.287 29.678 29.678-.001 16.389-13.288 29.677-29.678 29.677z" fill="#fedf30"/><path d="m450.621 56.037h-29.678v.008c16.241.174 29.356 13.387 29.356 29.67 0 16.283-13.114 29.496-29.356 29.67v.008h29.678c16.391 0 29.678-13.287 29.678-29.678-.001-16.391-13.288-29.678-29.678-29.678z" fill="#fed402"/><path d="m367.265 494.433-19.94-9.632c-1.329-.642-2.878-.642-4.207 0l-19.94 9.632c-3.211 1.551-6.94-.789-6.94-4.355v-58.26l27.967-10 30 10v58.26c0 3.566-3.729 5.906-6.94 4.355z" fill="#fe7d43"/><path d="m374.205 431.818-15-10-15 10v52.613c1.042-.224 2.141-.103 3.12.37l19.94 9.632c3.211 1.551 6.94-.789 6.94-4.355" fill="#fd6930"/><path d="m391.501 431.818h-258.663c-16.26 0-29.441-13.181-29.441-29.441v-372.936c0-16.26 13.181-29.441 29.441-29.441h258.664c16.26 0 29.441 13.181 29.441 29.441v372.935c0 16.26-13.182 29.442-29.442 29.442z" fill="#0473ce"/><path d="m391.501 0h-30c16.26 0 29.441 13.181 29.441 29.441v372.935c0 16.26-13.181 29.441-29.441 29.441h30c16.26 0 29.441-13.181 29.441-29.441v-372.935c.001-16.26-13.181-29.441-29.441-29.441z" fill="#0067c5"/><path d="m314.445 95.831h-121.961c-5.561 0-10.069 4.508-10.069 10.069v66.865c0 5.561 4.508 10.069 10.069 10.069h122.961l14-3.324v-43.145-38.108z" fill="#60b7ff"/><path d="m340.564 95.831h-30c5.561 0 10.069 4.508 10.069 10.069v66.865c0 5.561-4.508 10.069-10.069 10.069h30c5.561 0 10.069-4.508 10.069-10.069v-66.865c0-5.561-4.508-10.069-10.069-10.069z" fill="#0593fc"/><ellipse cx="121.915" cy="386.968" fill="#fff3ef" rx="107.293" ry="107.293" transform="matrix(.707 -.707 .707 .707 -237.92 199.547)"/><path d="m121.915 279.675c-5.091 0-10.098.363-15 1.049 52.154 7.297 92.293 52.079 92.293 106.244 0 54.164-40.139 98.947-92.293 106.244 4.902.686 9.909 1.049 15 1.049 59.256 0 107.293-48.037 107.293-107.293-.001-59.256-48.037-107.293-107.293-107.293z" fill="#f1f0f0"/><path d="m181.07 406.665-9.472-3.472c4.025-11.343 3.904-23.167.44-33.82l9.586-3.112c2.732-.887 4.157-3.913 3.064-6.569-6.639-16.141-19.046-28.92-34.974-36.02-2.612-1.165-5.668.154-6.647 2.842l-3.449 9.469c-11.342-4.032-23.165-3.917-33.819-.459l-3.109-9.594c-.881-2.717-3.886-4.161-6.528-3.077-16.169 6.629-28.972 19.042-36.085 34.986-1.169 2.619.162 5.683 2.861 6.654l9.461 3.403c-4.05 11.349-3.942 23.184-.488 33.848l-9.595 3.104c-2.729.883-4.157 3.901-3.075 6.558 6.599 16.193 18.897 29.272 34.782 36.451 2.656 1.2 5.771-.081 6.751-2.825l3.415-9.569.034-.095.069-.192c11.339 4.046 23.162 3.943 33.819.498l3.098 9.597c.878 2.718 3.881 4.165 6.525 3.084 16.213-6.625 29.047-19.059 36.169-35.044 1.162-2.611-.151-5.663-2.833-6.646zm-67.929 3.66c-13.64-4.876-20.77-19.939-15.895-33.579 4.876-13.64 19.94-20.77 33.58-15.895 13.64 4.876 20.77 19.94 15.895 33.58-4.876 13.639-19.94 20.77-33.58 15.894z" fill="#c5d3dd"/><g fill="#26a6fe"><path d="m350.633 222.111h-168.219c-4.142 0-7.5-3.358-7.5-7.5s3.358-7.5 7.5-7.5h168.219c4.142 0 7.5 3.358 7.5 7.5s-3.358 7.5-7.5 7.5z"/><path d="m350.633 253.887h-168.219c-4.142 0-7.5-3.358-7.5-7.5s3.358-7.5 7.5-7.5h168.219c4.142 0 7.5 3.358 7.5 7.5s-3.358 7.5-7.5 7.5z"/><path d="m350.633 285.332h-88.464c-4.142 0-7.5-3.358-7.5-7.5s3.358-7.5 7.5-7.5h88.464c4.142 0 7.5 3.358 7.5 7.5s-3.358 7.5-7.5 7.5z"/></g><path d="m145.454 257.175c-4.142 0-7.5-3.358-7.5-7.5v-175.675c0-4.142 3.358-7.5 7.5-7.5s7.5 3.358 7.5 7.5v175.675c0 4.142-3.358 7.5-7.5 7.5z" fill="#0055a3"/><path d="m181.07 406.665-9.472-3.472c4.025-11.343 3.904-23.167.44-33.82l9.586-3.112c2.732-.887 4.157-3.913 3.064-6.569-6.639-16.141-19.046-28.92-34.974-36.02-2.612-1.165-5.668.154-6.647 2.842l-3.449 9.469c-3.784-1.345-7.622-2.219-11.452-2.671 14.628 12.692 23.892 31.403 23.892 52.289 0 20.861-9.241 39.552-23.838 52.243 3.372-.409 6.685-1.137 9.891-2.173l3.098 9.597c.878 2.718 3.881 4.165 6.525 3.084 16.213-6.625 29.047-19.059 36.169-35.044 1.162-2.608-.151-5.66-2.833-6.643z" fill="#b6c4cf"/></svg>